<svg width="400" height="400" viewBox="0 0 400 400" fill="none" xmlns="http://www.w3.org/2000/svg">
<rect width="400" height="400" fill="#313030"/>
<rect width="400" height="400" fill="black"/>
<path d="M96.2849 327.486L303.992 76.0141" stroke="url(#paint0_linear_388_2)" stroke-width="22"/>
<line x1="96.3443" y1="75.0308" x2="304.344" y2="329.031" stroke="url(#paint1_linear_388_2)" stroke-width="22"/>
<line x1="93.8338" y1="335" x2="93.8455" y2="67.9995" stroke="white" stroke-width="22"/>
<line x1="306.834" y1="336" x2="306.845" y2="68.9995" stroke="url(#paint2_linear_388_2)" stroke-width="22"/>
<line x1="200.477" y1="367" x2="200.477" y2="246" stroke="white" stroke-width="15"/>
<line x1="200.019" y1="154" x2="200.019" y2="33" stroke="white" stroke-width="15"/>
<line y1="-5" x2="42.19" y2="-5" transform="matrix(-0.853282 -0.52145 -0.52145 0.853282 235.977 82)" stroke="white" stroke-width="10"/>
<line x1="238.584" y1="329.266" x2="202.584" y2="351.266" stroke="white" stroke-width="10"/>
<line x1="204.296" y1="280.481" x2="232.296" y2="328.481" stroke="white" stroke-width="10"/>
<line x1="232.25" y1="78.5971" x2="201.25" y2="129.597" stroke="white" stroke-width="10"/>
<defs>
<linearGradient id="paint0_linear_388_2" x1="311.135" y1="82.6716" x2="89.1424" y2="320.828" gradientUnits="userSpaceOnUse">
<stop stop-color="white"/>
</linearGradient>
<linearGradient id="paint1_linear_388_2" x1="87.4469" y1="82.3169" x2="295.447" y2="336.317" gradientUnits="userSpaceOnUse">
<stop offset="0.427885" stop-color="white"/>
</linearGradient>
<linearGradient id="paint2_linear_388_2" x1="318.345" y1="69" x2="318.334" y2="336" gradientUnits="userSpaceOnUse">
<stop stop-color="white"/>
</linearGradient>
</defs>
</svg>
